<svg id="Layer_1" data-name="Layer 1" xmlns="http://www.w3.org/2000/svg" viewBox="0 0 527.61 166.63"><defs><style>.cls-1{fill:#f04848;}.cls-2{fill:#231f20;}</style></defs><path class="cls-1" d="M87.22,496q-15.7,0-25.66-9.53t-10-25q0-15.42,10-24.95T87.22,427a39.22,39.22,0,0,1,22.15,6.59l-6.45,11.63a30.09,30.09,0,0,0-16.12-4.91q-9.26,0-14.94,6t-5.67,15.21q0,9.25,5.67,15.21t14.94,6a30.08,30.08,0,0,0,16.12-4.9l6.45,11.63A39.22,39.22,0,0,1,87.22,496Z" transform="translate(-51.61 -395.77)"/><path class="cls-1" d="M122.26,436.85q10.1-9.81,25.38-9.81T173,436.85q10.1,9.81,10.1,24.67T173,486.2Q162.92,496,147.64,496t-25.38-9.81q-10.1-9.81-10.09-24.68T122.26,436.85Zm40.45,9.39q-5.82-5.75-15.07-5.75t-15.07,5.75q-5.82,5.76-5.82,15.28t5.82,15.28q5.81,5.76,15.07,5.75t15.07-5.75q5.82-5.74,5.82-15.28T162.71,446.24Z" transform="translate(-51.61 -395.77)"/><path class="cls-1" d="M215.77,496a51.37,51.37,0,0,1-26.36-6.87L195.58,477q10.65,6.17,20.61,6.16t10.1-6c0-2.61-2.3-5-6.87-7.29l-11.78-5.74Q194,457.6,194,445.4q0-8.83,6.1-13.6T217,427a54.32,54.32,0,0,1,22.43,5L233.86,444q-9.83-4.2-17.25-4.21-8,0-8,4.91a5.7,5.7,0,0,0,1.61,4.07,20.46,20.46,0,0,0,5.82,3.64l12.06,5.75q12.9,6,12.9,18.22,0,9.67-6.8,14.65T215.77,496Z" transform="translate(-51.61 -395.77)"/><path class="cls-1" d="M284.32,440.77H271.15V474.7q0,6.74,6.73,6.73h3.36v12.62h-6.31q-8.55,0-13-4.35c-3-2.89-4.48-7-4.48-12.33v-36.6h-11.5V429.14h11.5V403.2h13.74v25.94h13.17Z" transform="translate(-51.61 -395.77)"/><path class="cls-2" d="M324.14,496q-15.7,0-25.66-9.53t-10-25q0-15.42,10-24.95T324.14,427a39.22,39.22,0,0,1,22.15,6.59l-6.45,11.63a30.07,30.07,0,0,0-16.12-4.91q-9.25,0-14.93,6t-5.68,15.21q0,9.25,5.68,15.21t14.93,6a30.05,30.05,0,0,0,16.12-4.9l6.45,11.63A39.22,39.22,0,0,1,324.14,496Z" transform="translate(-51.61 -395.77)"/><path class="cls-2" d="M380.64,496a30,30,0,0,1-22.43-9.39q-9.12-9.39-9.12-25.1t9.12-25.09A30,30,0,0,1,380.64,427q15.14,0,21.87,11.63h.28v-9.53h13.74v64.77H402.79v-9.53h-.28Q395.78,496,380.64,496Zm-11.5-19.28q5.48,5.82,14.44,5.82T398,476.73q5.46-5.81,5.47-15.21T398,446.31q-5.47-5.81-14.44-5.82t-14.44,5.82q-5.46,5.82-5.47,15.21T369.14,476.73Z" transform="translate(-51.61 -395.77)"/><path class="cls-2" d="M453.4,496A51.32,51.32,0,0,1,427,489.14L433.21,477q10.65,6.17,20.61,6.16t10.09-6q0-3.91-6.87-7.29l-11.77-5.74q-13.61-6.45-13.6-18.65,0-8.83,6.1-13.6T454.66,427a54.36,54.36,0,0,1,22.43,5L471.48,444q-9.81-4.2-17.24-4.21-8,0-8,4.91a5.66,5.66,0,0,0,1.61,4.07,20.17,20.17,0,0,0,5.82,3.64l12.05,5.75q12.9,6,12.9,18.22,0,9.67-6.8,14.65T453.4,496Z" transform="translate(-51.61 -395.77)"/><path class="cls-2" d="M504.29,395.77V439h.28Q511.29,427,525.74,427q11.07,0,17.73,6.51t6.66,20.54v39.82H536.39V456.48q0-15.71-14.86-15.71-17.25,0-17.24,22.15v31H490.55V395.77Z" transform="translate(-51.61 -395.77)"/><text x="-51.61" y="-395.77"/><circle class="cls-1" cx="511.39" cy="16.44" r="16.22"/></svg>