<svg id="Layer_1" data-name="Layer 1"
	xmlns="http://www.w3.org/2000/svg" viewBox="0 0 786.97 208.78">
	<defs>
		<style>.cls-1{fill:#f04848;}.cls-2,.cls-3{fill:#231f20;}.cls-3{font-size:27.94px;font-family:GTEestiProDisplay-Regular, GT Eesti Pro Display;}.cls-4{letter-spacing:-0.03em;}.cls-5{letter-spacing:-0.02em;}.cls-6{letter-spacing:-0.01em;}.cls-7{letter-spacing:-0.02em;}.cls-8{letter-spacing:0em;}.cls-9{letter-spacing:0em;}.cls-10{letter-spacing:-0.03em;}</style>
	</defs>
	<path class="cls-1" d="M138.9,229q-23.43,0-38.27-14.22T85.79,177.55q0-23,14.84-37.22t38.27-14.22a58.58,58.58,0,0,1,33,9.83l-9.62,17.35q-11.72-7.32-24-7.32-13.8,0-22.27,8.89t-8.47,22.69q0,13.8,8.47,22.69t22.27,8.88a44.82,44.82,0,0,0,24-7.31l9.62,17.35A58.51,58.51,0,0,1,138.9,229Z" transform="translate(-85.79 -79.48)"/>
	<path class="cls-1" d="M191.17,140.75q15.06-14.64,37.85-14.64t37.85,14.64q15.06,14.64,15.06,36.8t-15.06,36.8Q251.81,229,229,229t-37.85-14.64q-15-14.62-15-36.8T191.17,140.75Zm60.33,14q-8.67-8.58-22.48-8.58t-22.48,8.58q-8.67,8.56-8.67,22.79t8.67,22.79q8.69,8.58,22.48,8.58t22.48-8.58q8.69-8.57,8.68-22.79T251.5,154.76Z" transform="translate(-85.79 -79.48)"/>
	<path class="cls-1" d="M330.65,229a76.47,76.47,0,0,1-39.31-10.25l9.2-18.19q15.88,9.21,30.74,9.2,15,0,15.05-9,0-5.85-10.24-10.87l-17.57-8.58q-20.28-9.62-20.28-27.81,0-13.17,9.09-20.28t25.2-7.11A81,81,0,0,1,366,133.64l-8.37,17.77q-14.64-6.27-25.72-6.27-11.91,0-11.92,7.31a8.46,8.46,0,0,0,2.41,6.07q2.4,2.5,8.68,5.44l18,8.57q19.24,9,19.24,27.18,0,14.43-10.14,21.86T330.65,229Z" transform="translate(-85.79 -79.48)"/>
	<path class="cls-1" d="M432.9,146.6H413.25v50.6q0,10.05,10,10h5v18.82h-9.41q-12.75,0-19.44-6.48t-6.7-18.4V146.6H375.61V129.25h17.14V90.56h20.5v38.69H432.9Z" transform="translate(-85.79 -79.48)"/>
	<path class="cls-2" d="M492.29,229q-23.42,0-38.27-14.22t-14.84-37.22q0-23,14.84-37.22t38.27-14.22a58.58,58.58,0,0,1,33,9.83l-9.62,17.35Q504,146,491.66,146q-13.8,0-22.27,8.89t-8.47,22.69q0,13.8,8.47,22.69t22.27,8.88a44.82,44.82,0,0,0,24.05-7.31l9.62,17.35A58.51,58.51,0,0,1,492.29,229Z" transform="translate(-85.79 -79.48)"/>
	<path class="cls-2" d="M576.56,229q-19.87,0-33.46-14t-13.59-37.43q0-23.42,13.59-37.43t33.46-14q22.59,0,32.62,17.35h.42V129.25h20.49v96.6H609.6V211.63h-.42Q599.15,229,576.56,229Zm-17.15-28.75q8.16,8.67,21.54,8.68t21.54-8.68q8.16-8.69,8.15-22.69t-8.15-22.69q-8.16-8.67-21.54-8.68t-21.54,8.68q-8.14,8.69-8.15,22.69T559.41,200.24Z" transform="translate(-85.79 -79.48)"/>
	<path class="cls-2" d="M685.09,229q-21.76,0-39.32-10.25L655,200.55q15.88,9.21,30.74,9.2,15,0,15-9,0-5.85-10.25-10.87L673,181.31q-20.3-9.62-20.29-27.81,0-13.17,9.1-20.28t25.2-7.11a81,81,0,0,1,33.46,7.53l-8.37,17.77q-14.64-6.27-25.72-6.27-11.93,0-11.92,7.31a8.41,8.41,0,0,0,2.41,6.07q2.4,2.5,8.67,5.44l18,8.57q19.23,9,19.24,27.18,0,14.43-10.15,21.86T685.09,229Z" transform="translate(-85.79 -79.48)"/>
	<path class="cls-2" d="M761,79.48v64.4h.41q10-17.76,31.58-17.77,16.51,0,26.45,9.72t9.93,30.64v59.38H808.88V170q0-23.42-22.17-23.42-25.71,0-25.71,33v46.21H740.5V79.48Z" transform="translate(-85.79 -79.48)"/>
	<text x="-85.79" y="-79.48"/>
	<circle class="cls-1" cx="762.78" cy="24.53" r="24.19"/>
	<text class="cls-3" transform="translate(360.32 201.73)">
		<tspan class="cls-4" x="5.27">S</tspan>
		<tspan class="cls-5" x="22.27" y="0">t</tspan>
		<tspan class="cls-6" x="30.35" y="0">a</tspan>
		<tspan class="cls-5" x="45.03" y="0">y</tspan>
		<tspan x="60.02" y="0" xml:space="preserve"> on budg</tspan>
		<tspan class="cls-5" x="159.98" y="0">e</tspan>
		<tspan x="173.87" y="0">t, t</tspan>
		<tspan class="cls-7" x="205.66" y="0">r</tspan>
		<tspan class="cls-8" x="214.19" y="0">a</tspan>
		<tspan class="cls-9" x="230.14" y="0">c</tspan>
		<tspan x="242.91" y="0">k</tspan>
		<tspan class="cls-5" x="256.41" y="0"></tspan>
		<tspan class="cls-7" x="263.96" y="0">y</tspan>
		<tspan x="276.81" y="0">our </tspan>
		<tspan class="cls-10" x="324.65" y="0">c</tspan>
		<tspan x="336.72" y="0">osts</tspan>
	</text>
</svg>